<svg width="168" height="172" viewBox="0 0 168 172" fill="none" xmlns="http://www.w3.org/2000/svg">
<path d="M34.1331 40.3647C44.0472 50.987 53.8197 50.987 55.6609 50.987C52.8283 48.8626 42.552 42.2059 45.0386 42.2059C47.5251 42.2059 58.4935 42.9141 65.5751 39.3733C72.3969 35.9624 76.9055 29.0343 78.0386 27.7596C79.03 27.14 79.7381 37.5321 78.3219 42.4892C85.4034 36.824 86.8196 24.0772 86.1115 16.2876C85.8056 12.9229 81.1544 12.4635 79.7381 14.588C78.3218 16.7124 74.781 22.3068 73.3647 24.0772C71.9484 25.8476 67.7819 30.7546 62.7424 32.8583C58.7726 34.5156 54.2539 34.4163 49.9956 34.4163C43.6223 34.4163 37.2489 33.3116 35.8326 33.7081C32.2918 34.6995 33.2077 39.3733 34.1331 40.3647Z" fill="#25AAE2"/>
<circle cx="55.9441" cy="20.5364" r="10.6223" fill="#25AAE2"/>
<path d="M91.4809 15.9513C87.2388 29.8484 92.125 38.3116 93.0456 39.9061C93.4692 36.3907 94.0959 24.1629 95.3391 26.3164C96.5824 28.4698 101.453 38.3227 108.06 42.6851C114.425 46.8876 122.68 47.3281 124.35 47.672C125.382 48.2208 116.737 54.0301 111.735 55.2822C120.182 58.5823 131.93 53.4354 138.322 48.9273C141.082 46.9801 139.155 42.7224 136.607 42.558C134.059 42.3937 127.443 42.1245 125.202 41.7832C122.961 41.4418 116.628 40.287 112.286 36.9745C108.866 34.3652 106.693 30.4022 104.564 26.7144C101.377 21.1949 99.147 15.1231 98.0955 14.0948C95.4665 11.5241 91.8768 14.6542 91.4809 15.9513Z" fill="#F7941D"/>
<circle cx="119.558" cy="24.9261" r="10.6223" transform="rotate(60 119.558 24.9261)" fill="#F7941D"/>
<path d="M141.21 52.7753C127.054 56.05 122.167 64.5132 121.247 66.1078C124.503 64.7169 135.406 59.1457 134.163 61.2991C132.919 63.4525 126.822 72.5974 126.347 80.5005C125.89 88.1139 129.636 95.4825 130.173 97.1011C130.214 98.2695 120.86 93.6867 117.276 89.9817C118.641 98.947 128.972 106.547 136.072 109.828C139.139 111.246 141.862 107.448 140.731 105.159C139.599 102.87 136.524 97.0064 135.699 94.8946C134.874 92.7829 132.708 86.7211 133.406 81.3049C133.956 77.0383 136.301 73.1747 138.43 69.4869C141.617 63.9674 145.76 59.0002 146.125 57.5754C147.037 54.0133 142.531 52.4696 141.21 52.7753Z" fill="#F1592A"/>
<circle cx="147.476" cy="81.5784" r="10.6223" transform="rotate(120 147.476 81.5784)" fill="#F1592A"/>
<path d="M133.711 114.296C123.797 103.674 114.024 103.674 112.183 103.674C115.016 105.798 125.292 112.455 122.805 112.455C120.319 112.455 109.35 111.747 102.269 115.287C95.447 118.698 90.9384 125.626 89.8054 126.901C88.814 127.521 88.1058 117.129 89.5221 112.172C82.4406 117.837 81.0243 130.584 81.7324 138.373C82.0383 141.738 86.6895 142.197 88.1058 140.073C89.5221 137.948 93.0629 132.354 94.4792 130.584C95.8955 128.813 100.062 123.906 105.102 121.802C109.071 120.145 113.59 120.245 117.848 120.245C124.222 120.245 130.595 121.349 132.011 120.953C135.552 119.961 134.636 115.287 133.711 114.296Z" fill="#3AB54A"/>
<circle cx="111.9" cy="134.124" r="10.6223" transform="rotate(180 111.9 134.124)" fill="#3AB54A"/>
<path d="M76.514 139.134C80.7561 125.237 75.8699 116.774 74.9493 115.179C74.5258 118.695 73.8991 130.923 72.6558 128.769C71.4125 126.616 66.5416 116.763 59.9344 112.4C53.5696 108.198 45.3153 107.757 43.6449 107.414C42.6126 106.865 51.2584 101.055 56.2595 99.8034C47.8125 96.5033 36.0653 101.65 29.6734 106.158C26.9125 108.105 28.8402 112.363 31.3882 112.528C33.9362 112.692 40.5514 112.961 42.7928 113.302C45.0342 113.644 51.3669 114.799 55.7086 118.111C59.1287 120.72 61.3021 124.683 63.4312 128.371C66.6179 133.891 68.8479 139.962 69.8995 140.991C72.5284 143.561 76.1181 140.431 76.514 139.134Z" fill="#8EC63F"/>
<circle cx="48.4366" cy="130.159" r="10.6223" transform="rotate(-120 48.4366 130.159)" fill="#8EC63F"/>
<path d="M26.7902 102.027C40.9464 98.7522 45.8327 90.289 46.7533 88.6945C43.4971 90.0854 32.5942 95.6566 33.8375 93.5031C35.0807 91.3497 41.1782 82.2049 41.6526 74.3017C42.1095 66.6884 38.3639 59.3198 37.8265 57.7012C37.7856 56.5328 47.1396 61.1156 50.7244 64.8206C49.3589 55.8553 39.0281 48.2553 31.9279 44.9738C28.8611 43.5564 26.1377 47.3547 27.2693 49.6435C28.401 51.9323 31.4756 57.7959 32.3006 59.9076C33.1256 62.0194 35.2919 68.0811 34.5941 73.4974C34.0444 77.7639 31.699 81.6276 29.5699 85.3154C26.3832 90.8349 22.2398 95.802 21.8751 97.2269C20.9633 100.789 25.4689 102.333 26.7902 102.027Z" fill="#0E76BD"/>
<circle cx="20.5238" cy="73.2239" r="10.6223" transform="rotate(-60 20.5238 73.2239)" fill="#0E76BD"/>
<path d="M13.3841 171.55C12.3809 171.55 11.5193 171.379 10.7993 171.037C10.0912 170.695 9.44795 170.181 8.86963 169.497L10.463 167.903C10.8289 168.387 11.2537 168.765 11.7377 169.036C12.2216 169.296 12.8117 169.426 13.508 169.426C14.1336 169.426 14.6293 169.302 14.9952 169.054C15.3728 168.806 15.5617 168.464 15.5617 168.027C15.5617 167.649 15.4555 167.343 15.243 167.107C15.0306 166.87 14.7473 166.67 14.3932 166.505C14.051 166.339 13.6674 166.192 13.2425 166.062C12.8294 165.92 12.4104 165.761 11.9855 165.584C11.5724 165.407 11.1888 165.189 10.8348 164.929C10.4925 164.657 10.2151 164.315 10.0027 163.902C9.79023 163.477 9.68401 162.946 9.68401 162.309C9.68401 161.553 9.86695 160.91 10.2328 160.379C10.5987 159.848 11.1003 159.441 11.7377 159.157C12.375 158.874 13.0949 158.733 13.8975 158.733C14.7473 158.733 15.5145 158.892 16.199 159.211C16.8836 159.529 17.4442 159.942 17.8809 160.45L16.2875 162.043C15.9217 161.642 15.544 161.347 15.1545 161.158C14.7768 160.969 14.346 160.875 13.8621 160.875C13.3074 160.875 12.8707 160.981 12.552 161.193C12.2334 161.406 12.074 161.713 12.074 162.114C12.074 162.456 12.1802 162.734 12.3927 162.946C12.6051 163.159 12.8825 163.342 13.2248 163.495C13.5789 163.648 13.9624 163.796 14.3755 163.938C14.8004 164.079 15.2194 164.239 15.6325 164.416C16.0574 164.593 16.441 164.823 16.7832 165.106C17.1373 165.389 17.4206 165.755 17.633 166.204C17.8455 166.64 17.9517 167.183 17.9517 167.832C17.9517 168.989 17.5445 169.898 16.7301 170.559C15.9158 171.22 14.8004 171.55 13.3841 171.55Z" fill="#444444"/>
<path d="M23.1111 171.55C22.3322 171.55 21.6299 171.355 21.0044 170.966C20.3788 170.576 19.889 170.045 19.5349 169.373C19.1809 168.7 19.0038 167.945 19.0038 167.107C19.0038 166.257 19.1809 165.495 19.5349 164.823C19.889 164.15 20.3788 163.619 21.0044 163.229C21.6299 162.84 22.3322 162.645 23.1111 162.645C23.7249 162.645 24.2737 162.769 24.7576 163.017C25.2415 163.265 25.6251 163.613 25.9083 164.061C26.2034 164.498 26.3627 164.994 26.3863 165.549V168.629C26.3627 169.196 26.2034 169.697 25.9083 170.134C25.6251 170.571 25.2415 170.919 24.7576 171.178C24.2737 171.426 23.7249 171.55 23.1111 171.55ZM23.536 169.408C24.1852 169.408 24.7104 169.196 25.1117 168.771C25.5129 168.334 25.7136 167.773 25.7136 167.089C25.7136 166.64 25.6192 166.245 25.4303 165.903C25.2533 165.549 24.9995 165.277 24.6691 165.088C24.3504 164.888 23.9727 164.787 23.536 164.787C23.1111 164.787 22.7334 164.888 22.403 165.088C22.0843 165.277 21.8305 165.549 21.6417 165.903C21.4647 166.245 21.3761 166.64 21.3761 167.089C21.3761 167.549 21.4647 167.956 21.6417 168.31C21.8305 168.653 22.0843 168.924 22.403 169.125C22.7334 169.314 23.1111 169.408 23.536 169.408ZM25.5897 171.373V169.072L25.9614 166.983L25.5897 164.929V162.822H27.8912V171.373H25.5897Z" fill="#444444"/>
<path d="M34.6875 171.55C34.0738 171.55 33.519 171.42 33.0233 171.161C32.5276 170.901 32.1322 170.547 31.8372 170.098C31.5421 169.65 31.3828 169.148 31.3592 168.594V165.549C31.3828 164.994 31.5421 164.498 31.8372 164.061C32.144 163.613 32.5453 163.265 33.041 163.017C33.5367 162.769 34.0856 162.645 34.6875 162.645C35.4783 162.645 36.1864 162.84 36.812 163.229C37.4375 163.619 37.9273 164.15 38.2814 164.823C38.6473 165.495 38.8302 166.257 38.8302 167.107C38.8302 167.945 38.6473 168.7 38.2814 169.373C37.9273 170.045 37.4375 170.576 36.812 170.966C36.1864 171.355 35.4783 171.55 34.6875 171.55ZM34.298 169.408C34.7229 169.408 35.0947 169.314 35.4134 169.125C35.7438 168.924 35.9976 168.653 36.1746 168.31C36.3635 167.956 36.4579 167.549 36.4579 167.089C36.4579 166.64 36.3635 166.245 36.1746 165.903C35.9976 165.549 35.7438 165.277 35.4134 165.088C35.0829 164.888 34.7052 164.787 34.2803 164.787C33.8554 164.787 33.4777 164.888 33.1473 165.088C32.8286 165.277 32.5748 165.549 32.386 165.903C32.209 166.245 32.1204 166.64 32.1204 167.089C32.1204 167.549 32.209 167.956 32.386 168.31C32.5748 168.653 32.8345 168.924 33.165 169.125C33.4954 169.314 33.8731 169.408 34.298 169.408ZM29.9429 171.373V158.573H32.2621V164.929L31.8726 166.983L32.2444 169.072V171.373H29.9429Z" fill="#444444"/>
<path d="M40.3508 171.373V162.822H42.6877V171.373H40.3508ZM41.5192 161.441C41.1416 161.441 40.8288 161.317 40.5809 161.07C40.3331 160.81 40.2092 160.491 40.2092 160.114C40.2092 159.748 40.3331 159.435 40.5809 159.175C40.8288 158.916 41.1416 158.786 41.5192 158.786C41.9087 158.786 42.2215 158.916 42.4575 159.175C42.7054 159.435 42.8293 159.748 42.8293 160.114C42.8293 160.491 42.7054 160.81 42.4575 161.07C42.2215 161.317 41.9087 161.441 41.5192 161.441Z" fill="#444444"/>
<path d="M45.9991 171.373V159.264H48.3183V171.373H45.9991ZM43.9986 164.858V162.822H50.3189V164.858H43.9986Z" fill="#444444"/>
<path d="M51.6232 171.373V162.822H53.9424V171.373H51.6232ZM53.9424 166.646L53.0395 166.044C53.1457 164.994 53.4525 164.168 53.9601 163.566C54.4676 162.952 55.1993 162.645 56.1553 162.645C56.5684 162.645 56.9402 162.716 57.2707 162.858C57.6012 162.987 57.9021 163.206 58.1736 163.513L56.7219 165.177C56.592 165.035 56.4327 164.929 56.2439 164.858C56.0668 164.787 55.8603 164.752 55.6242 164.752C55.1285 164.752 54.7213 164.911 54.4027 165.23C54.0958 165.537 53.9424 166.009 53.9424 166.646Z" fill="#444444"/>
<path d="M58.9882 171.373V162.822H61.3251V171.373H58.9882ZM60.1567 161.441C59.779 161.441 59.4662 161.317 59.2184 161.07C58.9705 160.81 58.8466 160.491 58.8466 160.114C58.8466 159.748 58.9705 159.435 59.2184 159.175C59.4662 158.916 59.779 158.786 60.1567 158.786C60.5462 158.786 60.8589 158.916 61.095 159.175C61.3428 159.435 61.4668 159.748 61.4668 160.114C61.4668 160.491 61.3428 160.81 61.095 161.07C60.8589 161.317 60.5462 161.441 60.1567 161.441Z" fill="#444444"/>
<path d="M67.0852 171.373V158.927H69.493V171.373H67.0852ZM68.8556 166.274V164.132H75.1228V166.274H68.8556ZM68.8556 161.052V158.927H75.4238V161.052H68.8556Z" fill="#444444"/>
<path d="M80.7973 171.55C79.9357 171.55 79.1567 171.355 78.4604 170.966C77.7758 170.565 77.227 170.028 76.8139 169.355C76.4126 168.67 76.212 167.909 76.212 167.071C76.212 166.233 76.4126 165.484 76.8139 164.823C77.2152 164.15 77.764 163.619 78.4604 163.229C79.1567 162.828 79.9298 162.627 80.7796 162.627C81.653 162.627 82.4319 162.828 83.1165 163.229C83.8128 163.619 84.3617 164.15 84.7629 164.823C85.1642 165.484 85.3649 166.233 85.3649 167.071C85.3649 167.909 85.1642 168.67 84.7629 169.355C84.3617 170.028 83.8128 170.565 83.1165 170.966C82.4319 171.355 81.6589 171.55 80.7973 171.55ZM80.7796 169.39C81.2163 169.39 81.5999 169.296 81.9303 169.107C82.2726 168.906 82.5323 168.635 82.7093 168.293C82.8981 167.939 82.9926 167.537 82.9926 167.089C82.9926 166.64 82.8981 166.245 82.7093 165.903C82.5205 165.56 82.2608 165.295 81.9303 165.106C81.5999 164.905 81.2163 164.805 80.7796 164.805C80.3547 164.805 79.977 164.905 79.6465 165.106C79.3161 165.295 79.0564 165.56 78.8676 165.903C78.6787 166.245 78.5843 166.64 78.5843 167.089C78.5843 167.537 78.6787 167.939 78.8676 168.293C79.0564 168.635 79.3161 168.906 79.6465 169.107C79.977 169.296 80.3547 169.39 80.7796 169.39Z" fill="#444444"/>
<path d="M90.5049 171.55C89.7496 171.55 89.0768 171.391 88.4867 171.072C87.9084 170.754 87.454 170.311 87.1235 169.744C86.793 169.178 86.6278 168.523 86.6278 167.779V162.822H88.9647V167.726C88.9647 168.08 89.0237 168.387 89.1417 168.647C89.2598 168.895 89.4368 169.083 89.6729 169.213C89.9089 169.343 90.1863 169.408 90.5049 169.408C90.9888 169.408 91.3665 169.26 91.638 168.965C91.9094 168.67 92.0452 168.257 92.0452 167.726V162.822H94.3644V167.779C94.3644 168.535 94.1991 169.196 93.8687 169.762C93.55 170.329 93.0956 170.771 92.5055 171.09C91.9271 171.397 91.2603 171.55 90.5049 171.55Z" fill="#444444"/>
<path d="M101.965 171.373V166.469C101.965 165.962 101.806 165.549 101.487 165.23C101.168 164.911 100.755 164.752 100.248 164.752C99.9172 164.752 99.6222 164.823 99.3625 164.964C99.1029 165.106 98.8963 165.307 98.7429 165.566C98.6013 165.826 98.5304 166.127 98.5304 166.469L97.6275 166.009C97.6275 165.336 97.7692 164.752 98.0524 164.256C98.3475 163.749 98.7488 163.353 99.2563 163.07C99.7756 162.787 100.36 162.645 101.009 162.645C101.635 162.645 102.195 162.804 102.691 163.123C103.187 163.43 103.576 163.837 103.859 164.345C104.143 164.84 104.284 165.377 104.284 165.956V171.373H101.965ZM96.2112 171.373V162.822H98.5304V171.373H96.2112Z" fill="#444444"/>
<path d="M109.764 171.55C108.973 171.55 108.265 171.355 107.639 170.966C107.014 170.576 106.518 170.045 106.152 169.373C105.798 168.7 105.621 167.945 105.621 167.107C105.621 166.257 105.798 165.495 106.152 164.823C106.518 164.15 107.008 163.619 107.622 163.229C108.247 162.84 108.961 162.645 109.764 162.645C110.378 162.645 110.926 162.769 111.41 163.017C111.906 163.265 112.302 163.613 112.597 164.061C112.903 164.498 113.069 164.994 113.092 165.549V168.594C113.069 169.148 112.909 169.65 112.614 170.098C112.319 170.547 111.924 170.901 111.428 171.161C110.932 171.42 110.378 171.55 109.764 171.55ZM110.153 169.408C110.59 169.408 110.968 169.314 111.286 169.125C111.617 168.924 111.871 168.653 112.048 168.31C112.237 167.956 112.331 167.549 112.331 167.089C112.331 166.64 112.237 166.245 112.048 165.903C111.871 165.549 111.617 165.277 111.286 165.088C110.968 164.888 110.596 164.787 110.171 164.787C109.734 164.787 109.351 164.888 109.02 165.088C108.702 165.289 108.448 165.56 108.259 165.903C108.082 166.245 107.994 166.64 107.994 167.089C107.994 167.549 108.082 167.956 108.259 168.31C108.448 168.653 108.708 168.924 109.038 169.125C109.369 169.314 109.74 169.408 110.153 169.408ZM114.509 171.373H112.207V169.072L112.579 166.983L112.189 164.929V158.573H114.509V171.373Z" fill="#444444"/>
<path d="M120.136 171.55C119.357 171.55 118.655 171.355 118.03 170.966C117.404 170.576 116.914 170.045 116.56 169.373C116.206 168.7 116.029 167.945 116.029 167.107C116.029 166.257 116.206 165.495 116.56 164.823C116.914 164.15 117.404 163.619 118.03 163.229C118.655 162.84 119.357 162.645 120.136 162.645C120.75 162.645 121.299 162.769 121.783 163.017C122.267 163.265 122.65 163.613 122.934 164.061C123.229 164.498 123.388 164.994 123.412 165.549V168.629C123.388 169.196 123.229 169.697 122.934 170.134C122.65 170.571 122.267 170.919 121.783 171.178C121.299 171.426 120.75 171.55 120.136 171.55ZM120.561 169.408C121.21 169.408 121.736 169.196 122.137 168.771C122.538 168.334 122.739 167.773 122.739 167.089C122.739 166.64 122.645 166.245 122.456 165.903C122.279 165.549 122.025 165.277 121.694 165.088C121.376 164.888 120.998 164.787 120.561 164.787C120.136 164.787 119.759 164.888 119.428 165.088C119.11 165.277 118.856 165.549 118.667 165.903C118.49 166.245 118.401 166.64 118.401 167.089C118.401 167.549 118.49 167.956 118.667 168.31C118.856 168.653 119.11 168.924 119.428 169.125C119.759 169.314 120.136 169.408 120.561 169.408ZM122.615 171.373V169.072L122.987 166.983L122.615 164.929V162.822H124.916V171.373H122.615Z" fill="#444444"/>
<path d="M128.225 171.373V159.264H130.544V171.373H128.225ZM126.225 164.858V162.822H132.545V164.858H126.225Z" fill="#444444"/>
<path d="M133.849 171.373V162.822H136.186V171.373H133.849ZM135.018 161.441C134.64 161.441 134.327 161.317 134.079 161.07C133.831 160.81 133.708 160.491 133.708 160.114C133.708 159.748 133.831 159.435 134.079 159.175C134.327 158.916 134.64 158.786 135.018 158.786C135.407 158.786 135.72 158.916 135.956 159.175C136.204 159.435 136.328 159.748 136.328 160.114C136.328 160.491 136.204 160.81 135.956 161.07C135.72 161.317 135.407 161.441 135.018 161.441Z" fill="#444444"/>
<path d="M142.259 171.55C141.398 171.55 140.619 171.355 139.922 170.966C139.238 170.565 138.689 170.028 138.276 169.355C137.875 168.67 137.674 167.909 137.674 167.071C137.674 166.233 137.875 165.484 138.276 164.823C138.677 164.15 139.226 163.619 139.922 163.229C140.619 162.828 141.392 162.627 142.242 162.627C143.115 162.627 143.894 162.828 144.579 163.229C145.275 163.619 145.824 164.15 146.225 164.823C146.626 165.484 146.827 166.233 146.827 167.071C146.827 167.909 146.626 168.67 146.225 169.355C145.824 170.028 145.275 170.565 144.579 170.966C143.894 171.355 143.121 171.55 142.259 171.55ZM142.242 169.39C142.678 169.39 143.062 169.296 143.392 169.107C143.735 168.906 143.994 168.635 144.171 168.293C144.36 167.939 144.455 167.537 144.455 167.089C144.455 166.64 144.36 166.245 144.171 165.903C143.983 165.56 143.723 165.295 143.392 165.106C143.062 164.905 142.678 164.805 142.242 164.805C141.817 164.805 141.439 164.905 141.109 165.106C140.778 165.295 140.518 165.56 140.33 165.903C140.141 166.245 140.046 166.64 140.046 167.089C140.046 167.537 140.141 167.939 140.33 168.293C140.518 168.635 140.778 168.906 141.109 169.107C141.439 169.296 141.817 169.39 142.242 169.39Z" fill="#444444"/>
<path d="M154.074 171.373V166.469C154.074 165.962 153.914 165.549 153.596 165.23C153.277 164.911 152.864 164.752 152.356 164.752C152.026 164.752 151.731 164.823 151.471 164.964C151.212 165.106 151.005 165.307 150.852 165.566C150.71 165.826 150.639 166.127 150.639 166.469L149.736 166.009C149.736 165.336 149.878 164.752 150.161 164.256C150.456 163.749 150.858 163.353 151.365 163.07C151.884 162.787 152.469 162.645 153.118 162.645C153.743 162.645 154.304 162.804 154.8 163.123C155.295 163.43 155.685 163.837 155.968 164.345C156.251 164.84 156.393 165.377 156.393 165.956V171.373H154.074ZM148.32 171.373V162.822H150.639V171.373H148.32Z" fill="#444444"/>
</svg>
